<?xml version="1.0" encoding="utf-8"?>
<!-- Generator: Adobe Illustrator 23.0.5, SVG Export Plug-In . SVG Version: 6.00 Build 0)  -->
<svg version="1.1" id="Layer_1" xmlns="http://www.w3.org/2000/svg" xmlns:xlink="http://www.w3.org/1999/xlink" x="0px" y="0px"
	 viewBox="0 0 969.43 244.93" style="enable-background:new 0 0 969.43 244.93;" xml:space="preserve">
<style type="text/css">
	.st0{fill:#FFFFFF;}
	.st1{fill:#303030;}
	.st2{fill:#ECF6EC;}
	.st3{fill:#2D9E48;}
	.st4{fill:#F0F8F1;}
	.st5{fill-rule:evenodd;clip-rule:evenodd;}
	.st6{fill:#2C9F48;}
	.st7{fill:#050606;}
	.st8{fill-rule:evenodd;clip-rule:evenodd;fill:#2C9F48;}
	.st9{fill:#070707;}
	.st10{fill-rule:evenodd;clip-rule:evenodd;fill:#88C65A;}
	.st11{fill:#231F20;}
	.st12{fill-rule:evenodd;clip-rule:evenodd;fill:#73935C;}
	.st13{fill:#7FC45B;}
	.st14{fill:#66C4AB;}
	.st15{fill-rule:evenodd;clip-rule:evenodd;fill:#7FC45B;}
	.st16{fill:#6F5FA9;}
	.st17{fill-rule:evenodd;clip-rule:evenodd;fill:#7FC45B;stroke:#FFFFFF;stroke-width:0.25;stroke-miterlimit:10;}
	.st18{fill:#CE7459;}
	.st19{fill:#67BF75;}
	.st20{fill:#9B60A7;}
	.st21{fill-rule:evenodd;clip-rule:evenodd;fill:#9B60A7;}
	.st22{fill:#606161;}
	.st23{fill:#7FC45B;stroke:#FFFFFF;stroke-width:2;stroke-miterlimit:10;}
	.st24{fill:#303030;stroke:#FFFFFF;stroke-width:2;stroke-miterlimit:10;}
	.st25{fill:#66C4AB;stroke:#FFFFFF;stroke-width:2;stroke-miterlimit:10;}
	.st26{fill:#CE755A;stroke:#FFFFFF;stroke-width:2;stroke-miterlimit:10;}
	.st27{fill:#6F5FA9;stroke:#FFFFFF;stroke-width:2;stroke-miterlimit:10;}
	.st28{fill:#CF5A79;stroke:#FFFFFF;stroke-width:2;stroke-miterlimit:10;}
	.st29{fill:#9B60A7;stroke:#FFFFFF;stroke-width:2;stroke-miterlimit:10;}
	.st30{fill:#2C9F48;stroke:#FFFFFF;stroke-width:2;stroke-miterlimit:10;}
	.st31{fill:#88C65A;stroke:#FFFFFF;stroke-width:2;stroke-miterlimit:10;}
	.st32{fill-rule:evenodd;clip-rule:evenodd;fill:#FFFFFF;}
</style>
<g>
	<g>
		<path class="st3" d="M325.14,33.97c16.52,0,25.31,8.79,25.31,25.32v18.63c0,1.76-0.88,2.81-2.81,2.81h-18.28
			c-1.76,0-2.81-1.05-2.81-2.81V64.21c0-4.57-2.29-7.03-7.03-7.03h-8.44c-4.4,0-7.03,2.46-7.03,7.03v24.26l41.84,13.71
			c2.99,1.23,4.57,3.16,4.57,6.5v40.61c0,16.52-8.79,25.31-25.31,25.31h-19.69c-16.35,0-25.31-8.79-25.31-25.31v-18.46
			c0-1.93,1.05-2.81,2.81-2.81h18.28c1.93,0,2.81,0.88,2.81,2.81v13.54c0,4.75,2.64,7.03,7.03,7.03h8.44c4.57,0,7.03-2.29,7.03-7.03
			v-23.38l-41.66-13.71c-3.16-1.05-4.75-3.16-4.75-6.5V59.29c0-16.53,8.97-25.32,25.31-25.32H325.14z"/>
		<path class="st3" d="M368.04,36.79c0-1.76,1.05-2.81,2.81-2.81h42.19c16.52,0,25.31,8.79,25.31,25.32v42.89
			c0,16.35-8.79,25.31-25.31,25.31h-21.1v44.3c0,1.76-0.88,2.81-2.81,2.81h-18.28c-1.76,0-2.81-1.05-2.81-2.81V36.79z
			 M407.42,104.29c4.75,0,7.03-2.64,7.03-7.03V64.21c0-4.57-2.29-7.03-7.03-7.03h-15.47v47.11H407.42z"/>
		<path class="st3" d="M477.03,33.97c1.76,0,2.81,1.06,2.81,2.81V171.8c0,1.76-1.05,2.81-2.81,2.81h-18.28
			c-1.93,0-2.81-1.05-2.81-2.81V36.79c0-1.76,0.88-2.81,2.81-2.81H477.03z"/>
		<path class="st3" d="M569.67,33.97c1.76,0,2.81,1.06,2.81,2.81V171.8c0,1.76-1.05,2.81-2.81,2.81h-17.4
			c-1.58,0-2.64-0.7-3.16-2.29l-26.9-75.07h-0.88v74.54c0,1.76-0.88,2.81-2.81,2.81h-18.28c-1.76,0-2.81-1.05-2.81-2.81V36.79
			c0-1.76,1.05-2.81,2.81-2.81h17.4c1.58,0,2.64,0.7,3.16,2.29l26.72,74.71h1.06V36.79c0-1.76,0.88-2.81,2.81-2.81H569.67z"/>
		<path class="st9" d="M613.97,151.41h41.84c1.93,0,2.81,1.05,2.81,2.81v17.58c0,1.93-0.88,2.81-2.81,2.81h-62.94
			c-1.76,0-2.81-0.88-2.81-2.81V36.79c0-1.76,1.05-2.81,2.81-2.81h18.28c1.93,0,2.81,1.06,2.81,2.81V151.41z"/>
		<path class="st9" d="M738.79,174.61c-1.58,0-2.46-0.88-2.81-2.46l-4.92-25.67h-31.29l-4.75,25.67c-0.35,1.58-1.23,2.46-2.81,2.46
			h-18.81c-1.93,0-2.81-1.05-2.29-2.99l29.18-135.19c0.35-1.76,1.41-2.46,2.99-2.46h24.44c1.58,0,2.64,0.7,2.99,2.46l29.18,135.19
			c0.35,1.93-0.35,2.99-2.46,2.99H738.79z M715.4,64.74l-11.25,61.35h22.5L715.4,64.74z"/>
		<path class="st9" d="M846.2,91.64c0,6.5-4.75,11.43-11.08,12.48v0.35c6.33,1.05,11.08,5.98,11.08,12.48v32.35
			c0,16.52-8.97,25.31-25.49,25.31h-42.19c-1.76,0-2.81-1.05-2.81-2.81V36.79c0-1.93,1.05-2.81,2.81-2.81h42.19
			c16.52,0,25.49,8.79,25.49,25.32V91.64z M822.82,64.21c0-4.57-2.29-7.03-7.03-7.03h-16v35.51h16c4.57,0,7.03-2.46,7.03-6.86V64.21
			z M822.82,122.93c0-4.57-2.29-7.03-7.03-7.03h-16v35.51h16c4.57,0,7.03-2.29,7.03-7.03V122.93z"/>
		<path class="st9" d="M908.78,33.97c16.52,0,25.31,8.79,25.31,25.32v18.63c0,1.76-0.88,2.81-2.81,2.81H913
			c-1.76,0-2.81-1.05-2.81-2.81V64.21c0-4.57-2.29-7.03-7.03-7.03h-8.44c-4.4,0-7.03,2.46-7.03,7.03v24.26l41.84,13.71
			c2.99,1.23,4.57,3.16,4.57,6.5v40.61c0,16.52-8.79,25.31-25.31,25.31h-19.69c-16.35,0-25.31-8.79-25.31-25.31v-18.46
			c0-1.93,1.05-2.81,2.81-2.81h18.28c1.93,0,2.81,0.88,2.81,2.81v13.54c0,4.75,2.64,7.03,7.03,7.03h8.44c4.57,0,7.03-2.29,7.03-7.03
			v-23.38l-41.66-13.71c-3.16-1.05-4.75-3.16-4.75-6.5V59.29c0-16.53,8.97-25.32,25.31-25.32H908.78z"/>
	</g>
	<g>
		<path class="st3" d="M123.29,57.81c15,0.22,28.51,6.39,38.34,16.22l0.05-0.04L100.79,9.71L60.96,48.39l22.39,25.62
			C93.56,63.81,107.72,57.58,123.29,57.81z"/>
		<path class="st3" d="M164.65,77.31c8.41,9.88,13.42,22.72,13.22,36.71c-0.22,14.93-6.33,28.38-16.08,38.2l0.03,0.04l64.92-61.48
			l-38.68-39.83L161.68,74l3.06,3.23L164.65,77.31z"/>
		<path class="st3" d="M159.23,154.72l-0.03-0.03c-9.98,8.84-23.15,14.12-37.53,13.91c-13.9-0.2-26.53-5.52-36.13-14.13l59.37,62.69
			l39.83-38.68l-22.91-26.22L159.23,154.72z"/>
		<path class="st3" d="M67.08,112.4c0.2-13.72,5.38-26.19,13.78-35.74L18.21,136l38.68,39.83l26.62-23.26
			C73.18,142.34,66.85,128.09,67.08,112.4z"/>
		<path class="st3" d="M83.35,74.01c-0.86,0.86-1.69,1.74-2.49,2.65l2.63-2.49L83.35,74.01z"/>
		<path class="st3" d="M83.51,152.57c0.66,0.65,1.34,1.29,2.03,1.91l-1.91-2.01L83.51,152.57z"/>
	</g>
	<circle class="st12" cx="122.47" cy="113.43" r="49.69"/>
	<g>
		<path class="st11" d="M467.53,210.95h-13.24l-2.85,6.35h-2.61l10.86-23.77h2.48l10.86,23.77h-2.65L467.53,210.95z M466.62,208.91
			l-5.7-12.77l-5.7,12.77H466.62z"/>
		<path class="st11" d="M482.88,215.26l1.09-1.9c1.43,1.12,3.84,2,6.35,2c3.4,0,4.79-1.15,4.79-2.92c0-4.65-11.58-0.99-11.58-8.05
			c0-2.92,2.51-5.09,7.06-5.09c2.31,0,4.82,0.65,6.31,1.66l-1.05,1.93c-1.56-1.09-3.43-1.53-5.26-1.53c-3.23,0-4.65,1.26-4.65,2.95
			c0,4.82,11.58,1.19,11.58,8.05c0,3.09-2.72,5.09-7.37,5.09C487.19,217.47,484.34,216.51,482.88,215.26z"/>
		<path class="st11" d="M500.16,208.37c0-5.3,3.87-9.07,9.1-9.07c5.23,0,9.06,3.77,9.06,9.07c0,5.3-3.84,9.1-9.06,9.1
			C504.03,217.47,500.16,213.66,500.16,208.37z M515.88,208.37c0-4.18-2.82-6.96-6.62-6.96c-3.8,0-6.65,2.78-6.65,6.96
			c0,4.18,2.85,6.96,6.65,6.96C513.06,215.33,515.88,212.54,515.88,208.37z"/>
		<path class="st11" d="M529.87,208.33l-4.21,3.87v5.09h-2.41V192.1h2.41v17.08l10.66-9.74h2.99l-7.64,7.3l8.35,10.56h-2.95
			L529.87,208.33z"/>
		<path class="st11" d="M541.14,208.37c0-5.3,3.87-9.07,9.1-9.07s9.06,3.77,9.06,9.07c0,5.3-3.84,9.1-9.06,9.1
			S541.14,213.66,541.14,208.37z M556.86,208.37c0-4.18-2.82-6.96-6.62-6.96c-3.8,0-6.65,2.78-6.65,6.96c0,4.18,2.85,6.96,6.65,6.96
			C554.05,215.33,556.86,212.54,556.86,208.37z"/>
		<path class="st11" d="M582.33,208.37c0,5.43-3.8,9.1-8.9,9.1c-2.85,0-5.3-1.22-6.79-3.53v9.95h-2.41v-24.45h2.31v3.53
			c1.46-2.38,3.94-3.67,6.89-3.67C578.53,199.3,582.33,202.97,582.33,208.37z M579.92,208.37c0-4.14-2.89-6.96-6.65-6.96
			c-3.8,0-6.65,2.82-6.65,6.96c0,4.18,2.85,6.96,6.65,6.96C577.03,215.33,579.92,212.54,579.92,208.37z"/>
		<path class="st11" d="M587.25,192.1h2.41v25.19h-2.41V192.1z"/>
		<path class="st11" d="M609.86,206.23v11.07h-2.31v-2.78c-1.09,1.83-3.19,2.95-6.15,2.95c-4.04,0-6.52-2.11-6.52-5.19
			c0-2.75,1.77-5.06,6.89-5.06h5.67v-1.09c0-3.06-1.73-4.72-5.06-4.72c-2.31,0-4.48,0.81-5.94,2.1l-1.09-1.8
			c1.8-1.53,4.45-2.41,7.27-2.41C607.25,199.3,609.86,201.61,609.86,206.23z M607.45,211.93v-2.92h-5.6c-3.46,0-4.58,1.36-4.58,3.19
			c0,2.07,1.66,3.36,4.52,3.36C604.5,215.56,606.5,214.27,607.45,211.93z"/>
		<path class="st11" d="M614.69,208.37c0-5.33,3.87-9.07,9.2-9.07c3.02,0,5.57,1.19,6.99,3.53l-1.8,1.22
			c-1.22-1.8-3.12-2.65-5.19-2.65c-3.9,0-6.76,2.78-6.76,6.96c0,4.21,2.85,6.96,6.76,6.96c2.07,0,3.97-0.82,5.19-2.61l1.8,1.22
			c-1.43,2.31-3.97,3.53-6.99,3.53C618.56,217.47,614.69,213.7,614.69,208.37z"/>
		<path class="st11" d="M650.85,209.11h-14.94c0.27,3.74,3.12,6.21,7.03,6.21c2.17,0,4.11-0.78,5.47-2.34l1.36,1.56
			c-1.6,1.9-4.07,2.92-6.89,2.92c-5.57,0-9.37-3.8-9.37-9.1c0-5.3,3.7-9.07,8.73-9.07s8.66,3.7,8.66,9.07
			C650.88,208.57,650.85,208.84,650.85,209.11z M635.91,207.31h12.66c-0.31-3.5-2.85-5.94-6.35-5.94
			C638.76,201.37,636.21,203.82,635.91,207.31z"/>
		<path class="st11" d="M681.23,199.44v15.69c0,6.15-3.02,8.93-8.93,8.93c-3.26,0-6.45-0.98-8.32-2.75l1.22-1.83
			c1.7,1.53,4.28,2.44,7.03,2.44c4.52,0,6.59-2.07,6.59-6.48v-2.27c-1.49,2.27-4.04,3.46-6.96,3.46c-5.09,0-8.96-3.57-8.96-8.69
			c0-5.13,3.87-8.62,8.96-8.62c2.99,0,5.57,1.22,7.06,3.57v-3.43H681.23z M678.89,207.93c0-3.87-2.85-6.52-6.79-6.52
			c-3.94,0-6.76,2.65-6.76,6.52c0,3.87,2.82,6.55,6.76,6.55C676.04,214.48,678.89,211.8,678.89,207.93z"/>
		<path class="st11" d="M696.99,199.3v2.34c-0.2,0-0.41-0.03-0.58-0.03c-3.73,0-6.01,2.38-6.01,6.59v9.1h-2.41v-17.86h2.31v3.5
			C691.42,200.56,693.69,199.3,696.99,199.3z"/>
		<path class="st11" d="M699.37,208.37c0-5.3,3.87-9.07,9.1-9.07s9.06,3.77,9.06,9.07c0,5.3-3.84,9.1-9.06,9.1
			S699.37,213.66,699.37,208.37z M715.08,208.37c0-4.18-2.82-6.96-6.62-6.96c-3.8,0-6.65,2.78-6.65,6.96c0,4.18,2.85,6.96,6.65,6.96
			C712.27,215.33,715.08,212.54,715.08,208.37z"/>
		<path class="st11" d="M738.55,199.44v17.86h-2.31v-3.26c-1.26,2.17-3.56,3.43-6.42,3.43c-4.55,0-7.54-2.55-7.54-7.67v-10.36h2.41
			v10.12c0,3.8,1.97,5.74,5.36,5.74c3.73,0,6.08-2.41,6.08-6.48v-9.37H738.55z"/>
		<path class="st11" d="M763.4,208.37c0,5.43-3.8,9.1-8.9,9.1c-2.85,0-5.3-1.22-6.79-3.53v9.95h-2.41v-24.45h2.31v3.53
			c1.46-2.38,3.94-3.67,6.89-3.67C759.6,199.3,763.4,202.97,763.4,208.37z M760.99,208.37c0-4.14-2.89-6.96-6.65-6.96
			c-3.8,0-6.65,2.82-6.65,6.96c0,4.18,2.85,6.96,6.65,6.96C758.1,215.33,760.99,212.54,760.99,208.37z"/>
		<path class="st11" d="M775.42,208.37c0-5.33,3.87-9.07,9.2-9.07c3.02,0,5.57,1.19,6.99,3.53l-1.8,1.22
			c-1.22-1.8-3.12-2.65-5.19-2.65c-3.9,0-6.76,2.78-6.76,6.96c0,4.21,2.85,6.96,6.76,6.96c2.07,0,3.97-0.82,5.19-2.61l1.8,1.22
			c-1.43,2.31-3.97,3.53-6.99,3.53C779.29,217.47,775.42,213.7,775.42,208.37z"/>
		<path class="st11" d="M794.23,208.37c0-5.3,3.87-9.07,9.1-9.07s9.06,3.77,9.06,9.07c0,5.3-3.84,9.1-9.06,9.1
			S794.23,213.66,794.23,208.37z M809.95,208.37c0-4.18-2.82-6.96-6.62-6.96c-3.8,0-6.65,2.78-6.65,6.96c0,4.18,2.85,6.96,6.65,6.96
			C807.13,215.33,809.95,212.54,809.95,208.37z"/>
		<path class="st11" d="M846.79,206.94v10.36h-2.41v-10.12c0-3.77-1.9-5.7-5.13-5.7c-3.67,0-5.98,2.38-5.98,6.45v9.37h-2.41v-10.12
			c0-3.77-1.9-5.7-5.16-5.7c-3.63,0-5.98,2.38-5.98,6.45v9.37h-2.41v-17.86h2.31v3.26c1.26-2.14,3.56-3.4,6.55-3.4
			c2.95,0,5.26,1.26,6.35,3.77c1.29-2.31,3.84-3.77,7.06-3.77C843.94,199.3,846.79,201.81,846.79,206.94z"/>
		<path class="st11" d="M871.44,208.37c0,5.43-3.8,9.1-8.9,9.1c-2.85,0-5.3-1.22-6.79-3.53v9.95h-2.41v-24.45h2.31v3.53
			c1.46-2.38,3.94-3.67,6.89-3.67C867.64,199.3,871.44,202.97,871.44,208.37z M869.03,208.37c0-4.14-2.89-6.96-6.65-6.96
			c-3.8,0-6.65,2.82-6.65,6.96c0,4.18,2.85,6.96,6.65,6.96C866.14,215.33,869.03,212.54,869.03,208.37z"/>
		<path class="st11" d="M889.74,206.23v11.07h-2.31v-2.78c-1.09,1.83-3.19,2.95-6.15,2.95c-4.04,0-6.52-2.11-6.52-5.19
			c0-2.75,1.77-5.06,6.89-5.06h5.67v-1.09c0-3.06-1.73-4.72-5.06-4.72c-2.31,0-4.48,0.81-5.94,2.1l-1.09-1.8
			c1.8-1.53,4.45-2.41,7.27-2.41C887.13,199.3,889.74,201.61,889.74,206.23z M887.33,211.93v-2.92h-5.6c-3.46,0-4.58,1.36-4.58,3.19
			c0,2.07,1.66,3.36,4.52,3.36C884.38,215.56,886.38,214.27,887.33,211.93z"/>
		<path class="st11" d="M912.73,206.94v10.36h-2.41v-10.12c0-3.77-1.97-5.7-5.36-5.7c-3.84,0-6.25,2.38-6.25,6.45v9.37h-2.41v-17.86
			h2.31v3.29c1.29-2.17,3.7-3.43,6.79-3.43C909.74,199.3,912.73,201.81,912.73,206.94z"/>
		<path class="st11" d="M933.95,199.44l-8.93,20c-1.49,3.5-3.4,4.62-5.94,4.62c-1.66,0-3.26-0.54-4.35-1.63l1.12-1.8
			c0.88,0.88,1.97,1.36,3.26,1.36c1.6,0,2.68-0.75,3.7-2.99l0.78-1.73l-7.98-17.82h2.51l6.72,15.18l6.72-15.18H933.95z"/>
	</g>
</g>
</svg>
