<svg width="190" height="43" viewBox="0 0 190 43" fill="none" xmlns="http://www.w3.org/2000/svg">
<rect x="20.521" y="25.1808" width="17.5502" height="17.5502" fill="white"/>
<path d="M51.9598 31.6521V27.4299C52.7251 28.072 53.5563 28.5558 54.4536 28.8813C55.3508 29.1979 56.2568 29.3563 57.1716 29.3563C57.7082 29.3563 58.1744 29.3079 58.5702 29.2111C58.9748 29.1144 59.3091 28.9824 59.573 28.8153C59.8457 28.6394 60.048 28.4371 60.1799 28.2084C60.3119 27.9709 60.3779 27.7158 60.3779 27.4431C60.3779 27.0736 60.2723 26.7438 60.0612 26.4535C59.8501 26.1632 59.5598 25.8949 59.1904 25.6486C58.8297 25.4023 58.3987 25.1648 57.8973 24.9361C57.3959 24.7074 56.8549 24.4743 56.2744 24.2368C54.7966 23.6211 53.6927 22.869 52.9626 21.9806C52.2413 21.0922 51.8806 20.019 51.8806 18.7611C51.8806 17.776 52.0786 16.9315 52.4744 16.2278C52.8702 15.5153 53.4068 14.9304 54.0841 14.4729C54.7702 14.0155 55.5619 13.6813 56.4591 13.4702C57.3563 13.2503 58.3063 13.1403 59.3091 13.1403C60.2943 13.1403 61.1651 13.2019 61.9216 13.325C62.6869 13.4394 63.3906 13.6197 64.0327 13.866V17.8111C63.7161 17.5912 63.3686 17.3977 62.9904 17.2306C62.6209 17.0635 62.2383 16.9271 61.8424 16.8216C61.4466 16.7072 61.0508 16.6236 60.6549 16.5709C60.2679 16.5181 59.8985 16.4917 59.5466 16.4917C59.0628 16.4917 58.623 16.5401 58.2272 16.6368C57.8313 16.7248 57.4971 16.8523 57.2244 17.0195C56.9517 17.1866 56.7406 17.3889 56.5911 17.6264C56.4415 17.8551 56.3667 18.1146 56.3667 18.4049C56.3667 18.7216 56.4503 19.0074 56.6174 19.2625C56.7846 19.5088 57.0221 19.7463 57.3299 19.975C57.6378 20.1949 58.0117 20.4148 58.4515 20.6348C58.8913 20.8459 59.3883 21.0658 59.9424 21.2945C60.6989 21.6111 61.3762 21.9498 61.9744 22.3104C62.5813 22.6623 63.1003 23.0625 63.5313 23.5111C63.9624 23.9598 64.2922 24.4743 64.5209 25.0549C64.7496 25.6267 64.864 26.2952 64.864 27.0604C64.864 28.116 64.6617 29.0044 64.257 29.7257C63.8612 30.4382 63.3202 31.0188 62.6341 31.4674C61.948 31.9072 61.1475 32.2239 60.2327 32.4174C59.3267 32.6109 58.3679 32.7077 57.3563 32.7077C56.3184 32.7077 55.3288 32.6197 54.3876 32.4438C53.4552 32.2679 52.6459 32.004 51.9598 31.6521ZM74.0077 32.7077C71.7559 32.7077 69.9834 32.0787 68.6904 30.8209C67.4061 29.5542 66.764 27.8389 66.764 25.675C66.764 23.4408 67.4325 21.6947 68.7695 20.4368C70.1066 19.1702 71.9142 18.5368 74.1924 18.5368C76.4355 18.5368 78.1948 19.1702 79.4702 20.4368C80.7457 21.6947 81.3834 23.3616 81.3834 25.4375C81.3834 27.6806 80.7237 29.453 79.4042 30.7549C78.0936 32.0567 76.2948 32.7077 74.0077 32.7077ZM74.1133 21.7299C73.1281 21.7299 72.3628 22.0685 71.8174 22.7459C71.2721 23.4232 70.9994 24.382 70.9994 25.6223C70.9994 28.2172 72.0461 29.5146 74.1397 29.5146C76.1364 29.5146 77.1348 28.182 77.1348 25.5167C77.1348 22.9922 76.1276 21.7299 74.1133 21.7299ZM97.6258 32.3778H92.6251L88.3105 25.675H88.2577V32.3778H84.0883V12.375H88.2577V25.1077H88.3105L92.3348 18.8667H97.2827L92.4404 25.2132L97.6258 32.3778ZM105.252 32.7077C103 32.7077 101.228 32.0787 99.9348 30.8209C98.6505 29.5542 98.0084 27.8389 98.0084 25.675C98.0084 23.4408 98.6769 21.6947 100.014 20.4368C101.351 19.1702 103.159 18.5368 105.437 18.5368C107.68 18.5368 109.439 19.1702 110.715 20.4368C111.99 21.6947 112.628 23.3616 112.628 25.4375C112.628 27.6806 111.968 29.453 110.649 30.7549C109.338 32.0567 107.539 32.7077 105.252 32.7077ZM105.358 21.7299C104.373 21.7299 103.607 22.0685 103.062 22.7459C102.517 23.4232 102.244 24.382 102.244 25.6223C102.244 28.2172 103.291 29.5146 105.384 29.5146C107.381 29.5146 108.379 28.182 108.379 25.5167C108.379 22.9922 107.372 21.7299 105.358 21.7299ZM119.555 30.8077H119.502V38.5924H115.333V18.8667H119.502V20.8986H119.555C120.584 19.3241 122.031 18.5368 123.896 18.5368C125.646 18.5368 126.997 19.1394 127.947 20.3445C128.905 21.5408 129.385 23.1725 129.385 25.2396C129.385 27.4915 128.826 29.2991 127.709 30.6625C126.601 32.026 125.123 32.7077 123.276 32.7077C121.648 32.7077 120.408 32.0743 119.555 30.8077ZM119.436 25.266V26.3479C119.436 27.2804 119.682 28.0412 120.175 28.6306C120.668 29.2199 121.314 29.5146 122.115 29.5146C123.065 29.5146 123.799 29.1496 124.318 28.4195C124.846 27.6806 125.11 26.6382 125.11 25.2924C125.11 22.9174 124.186 21.7299 122.339 21.7299C121.486 21.7299 120.786 22.0554 120.241 22.7063C119.704 23.3484 119.436 24.2017 119.436 25.266ZM136.259 32.3778H132.09V12.375H136.259V32.3778ZM151.011 32.3778H147.065V30.4382H147.013C146.107 31.9512 144.765 32.7077 142.988 32.7077C141.678 32.7077 140.644 32.3382 139.888 31.5993C139.14 30.8517 138.766 29.8577 138.766 28.6174C138.766 25.9961 140.319 24.4831 143.424 24.0785L147.092 23.5903C147.092 22.1125 146.291 21.3736 144.69 21.3736C143.081 21.3736 141.55 21.853 140.099 22.8118V19.6716C140.679 19.3725 141.471 19.1086 142.474 18.8799C143.485 18.6512 144.404 18.5368 145.231 18.5368C149.084 18.5368 151.011 20.4588 151.011 24.3028V32.3778ZM147.092 26.8889V25.9785L144.638 26.2952C143.283 26.4711 142.606 27.0824 142.606 28.1292C142.606 28.6042 142.768 28.9956 143.094 29.3035C143.428 29.6026 143.877 29.7521 144.44 29.7521C145.223 29.7521 145.86 29.4838 146.353 28.9473C146.845 28.4019 147.092 27.7158 147.092 26.8889ZM164.548 31.8896C163.607 32.435 162.248 32.7077 160.471 32.7077C158.395 32.7077 156.715 32.0787 155.431 30.8209C154.146 29.563 153.504 27.9401 153.504 25.9521C153.504 23.6563 154.19 21.8486 155.563 20.5292C156.944 19.201 158.786 18.5368 161.091 18.5368C162.683 18.5368 163.836 18.7479 164.548 19.1702V22.7063C163.677 22.0554 162.705 21.7299 161.632 21.7299C160.436 21.7299 159.486 22.0817 158.782 22.7854C158.087 23.4804 157.74 24.4435 157.74 25.675C157.74 26.8713 158.074 27.8125 158.742 28.4986C159.411 29.176 160.33 29.5146 161.5 29.5146C162.538 29.5146 163.554 29.1892 164.548 28.5382V31.8896ZM179.431 26.8098H170.617C170.758 28.7713 171.994 29.7521 174.325 29.7521C175.812 29.7521 177.118 29.4003 178.244 28.6966V31.7049C176.995 32.3734 175.372 32.7077 173.375 32.7077C171.194 32.7077 169.5 32.1051 168.295 30.9C167.09 29.6861 166.488 27.9973 166.488 25.8334C166.488 23.5903 167.139 21.8135 168.44 20.5028C169.742 19.1922 171.343 18.5368 173.243 18.5368C175.214 18.5368 176.735 19.1218 177.808 20.2917C178.89 21.4616 179.431 23.0493 179.431 25.0549V26.8098ZM175.565 24.25C175.565 22.3148 174.782 21.3473 173.217 21.3473C172.548 21.3473 171.968 21.6243 171.475 22.1785C170.991 22.7327 170.697 23.4232 170.591 24.25H175.565Z" fill="white"/>
<rect y="3.81525" width="17.5502" height="17.5502" fill="white"/>
<rect y="25.1808" width="17.5502" height="17.5502" fill="white"/>
<rect x="29.96" width="17.5502" height="17.5502" transform="rotate(45 29.96 0)" fill="white"/>
</svg>
