<?xml version="1.0" encoding="utf-8"?>
<!-- Generator: Adobe Illustrator 23.0.5, SVG Export Plug-In . SVG Version: 6.00 Build 0)  -->
<svg version="1.1" id="Layer_1" xmlns="http://www.w3.org/2000/svg" xmlns:xlink="http://www.w3.org/1999/xlink" x="0px" y="0px"
	 viewBox="0 0 1111 237" style="enable-background:new 0 0 1111 237;" xml:space="preserve">
<style type="text/css">
	.st0{fill:#046C4C;}
	.st1{fill:#FFFFFF;}
</style>
<g>
	<rect x="53.94" y="41.13" class="st0" width="73.66" height="73.66"/>
	
		<rect x="147.33" y="44.37" transform="matrix(0.7071 -0.7071 0.7071 0.7071 -3.4734 154.0038)" class="st0" width="73.66" height="73.66"/>
	<rect x="146.74" y="133.34" class="st0" width="73.66" height="73.66"/>
	<rect x="53.64" y="133.34" class="st0" width="73.66" height="73.66"/>
</g>
<g>
	<path class="st0" d="M271.25,167.69l6.75-15.15c8.4,6.75,21.75,11.55,34.65,11.55c16.35,0,23.25-5.85,23.25-13.65
		c0-22.65-62.4-7.8-62.4-46.8c0-16.95,13.5-31.35,42.3-31.35c12.6,0,25.8,3.3,34.95,9.3l-6.15,15.15
		c-9.45-5.55-19.8-8.25-28.95-8.25c-16.2,0-22.8,6.3-22.8,14.25c0,22.35,62.25,7.8,62.25,46.35c0,16.8-13.65,31.2-42.45,31.2
		C296.3,180.29,279.95,175.19,271.25,167.69z"/>
	<path class="st0" d="M366.05,138.74c0-24,18-40.95,42.6-40.95c24.9,0,42.75,16.95,42.75,40.95s-17.85,41.1-42.75,41.1
		C384.05,179.84,366.05,162.74,366.05,138.74z M432.5,138.74c0-15.3-10.2-25.05-23.85-25.05c-13.5,0-23.7,9.75-23.7,25.05
		s10.2,25.05,23.7,25.05C422.3,163.79,432.5,154.04,432.5,138.74z"/>
	<path class="st0" d="M502.1,144.44l-13.95,13.2v21.15H469.4V67.49h18.75v67.2l38.85-36h22.5l-33.45,33.6l36.6,46.5h-22.8
		L502.1,144.44z"/>
	<path class="st0" d="M554.9,138.74c0-24,18-40.95,42.6-40.95c24.9,0,42.75,16.95,42.75,40.95s-17.85,41.1-42.75,41.1
		C572.9,179.84,554.9,162.74,554.9,138.74z M621.35,138.74c0-15.3-10.2-25.05-23.85-25.05c-13.5,0-23.7,9.75-23.7,25.05
		s10.2,25.05,23.7,25.05C611.15,163.79,621.35,154.04,621.35,138.74z"/>
	<path class="st0" d="M743.29,138.74c0,24.9-17.25,41.1-40.65,41.1c-10.2,0-19.2-3.45-25.65-10.8v38.85h-18.75V98.69h17.85v10.5
		c6.3-7.65,15.6-11.4,26.55-11.4C726.04,97.79,743.29,113.99,743.29,138.74z M724.24,138.74c0-15.3-10.2-25.05-23.7-25.05
		c-13.5,0-23.85,9.75-23.85,25.05s10.35,25.05,23.85,25.05C714.04,163.79,724.24,154.04,724.24,138.74z"/>
	<path class="st0" d="M761.14,67.49h18.75v111.3h-18.75V67.49z"/>
	<path class="st0" d="M871.54,131.84v46.95h-17.7v-9.75c-4.5,6.9-13.2,10.8-25.2,10.8c-18.3,0-29.85-10.05-29.85-24
		c0-13.35,9-23.85,33.3-23.85h20.7v-1.2c0-10.95-6.6-17.4-19.95-17.4c-9,0-18.3,3-24.3,7.95l-7.35-13.65c8.55-6.6,21-9.9,33.9-9.9
		C858.19,97.79,871.54,108.74,871.54,131.84z M852.79,153.74v-9.3h-19.35c-12.75,0-16.2,4.8-16.2,10.65c0,6.75,5.7,11.1,15.3,11.1
		C841.69,166.19,849.64,161.99,852.79,153.74z"/>
	<path class="st0" d="M889.69,138.74c0-24,18-40.95,43.35-40.95c15.6,0,28.05,6.45,34.2,18.6l-14.4,8.4
		c-4.8-7.65-12-11.1-19.95-11.1c-13.8,0-24.3,9.6-24.3,25.05c0,15.6,10.5,25.05,24.3,25.05c7.95,0,15.15-3.45,19.95-11.1l14.4,8.4
		c-6.15,12-18.6,18.75-34.2,18.75C907.69,179.84,889.69,162.74,889.69,138.74z"/>
	<path class="st0" d="M1057.24,144.74h-62.85c2.25,11.7,12,19.2,25.95,19.2c9,0,16.05-2.85,21.75-8.7l10.05,11.55
		c-7.2,8.55-18.45,13.05-32.25,13.05c-26.85,0-44.25-17.25-44.25-41.1s17.55-40.95,41.4-40.95c23.4,0,40.5,16.35,40.5,41.4
		C1057.54,140.69,1057.39,142.94,1057.24,144.74z M994.24,132.29h45.45c-1.5-11.55-10.35-19.5-22.65-19.5
		C1004.89,112.79,996.04,120.59,994.24,132.29z"/>
</g>
</svg>
